<svg width="151" height="48" viewBox="0 0 151 48" fill="none" xmlns="http://www.w3.org/2000/svg">
<path d="M16.8706 4.35461H11.7459C11.4615 3.35058 10.9196 2.43833 10.1739 1.70835C9.42817 0.97837 8.50458 0.456018 7.49472 0.193102C6.48485 -0.0698151 5.42379 -0.0641603 4.41679 0.209505C3.40978 0.48317 2.49181 1.01534 1.75392 1.75322C1.01603 2.49111 0.483866 3.40908 0.210201 4.41609C-0.0634641 5.4231 -0.0691188 6.48415 0.193798 7.49402C0.456714 8.50389 0.979067 9.42748 1.70905 10.1732C2.43903 10.9189 3.35127 11.4608 4.35531 11.7452V19.8134C3.10383 20.1703 2.00272 20.9252 1.21877 21.9639C0.434812 23.0026 0.0107165 24.2686 0.0107165 25.5699C0.0107165 26.8713 0.434812 28.1372 1.21877 29.1759C2.00272 30.2146 3.10383 30.9696 4.35531 31.3264V36.1334C2.96499 36.5271 1.76398 37.4103 0.973946 38.6202C0.183911 39.83 -0.141818 41.2848 0.0568773 42.7161C0.255573 44.1473 0.96528 45.4583 2.05501 46.4072C3.14474 47.3561 4.54093 47.8788 5.9859 47.8788C7.43086 47.8788 8.82705 47.3561 9.91678 46.4072C11.0065 45.4583 11.7162 44.1473 11.9149 42.7161C12.1136 41.2848 11.7879 39.83 10.9978 38.6202C10.2078 37.4103 9.0068 36.5271 7.61648 36.1334V31.3264C8.59769 31.0469 9.49131 30.5217 10.2127 29.8003C10.9341 29.0789 11.4594 28.1852 11.7388 27.204H16.8635C19.8926 27.204 22.7976 26.0007 24.9395 23.8588C27.0814 21.717 28.2847 18.8119 28.2847 15.7828C28.2847 12.7538 27.0814 9.84874 24.9395 7.70686C22.7976 5.56497 19.8926 4.36167 16.8635 4.36167L16.8706 4.35461ZM3.26825 5.99226C3.26825 5.45476 3.42764 4.92933 3.72626 4.48242C4.02487 4.0355 4.44931 3.68717 4.9459 3.48148C5.44248 3.27579 5.98891 3.22197 6.51608 3.32683C7.04326 3.43169 7.52749 3.69052 7.90756 4.07059C8.28763 4.45066 8.54646 4.9349 8.65132 5.46207C8.75619 5.98924 8.70237 6.53567 8.49667 7.03226C8.29098 7.52884 7.94266 7.95328 7.49574 8.2519C7.04883 8.55052 6.5234 8.70991 5.9859 8.70991C5.26513 8.70991 4.57389 8.42358 4.06423 7.91393C3.55457 7.40427 3.26825 6.71302 3.26825 5.99226ZM8.7106 41.8934C8.7106 42.4309 8.55122 42.9564 8.2526 43.4033C7.95398 43.8502 7.52954 44.1985 7.03295 44.4042C6.53637 44.6099 5.98994 44.6637 5.46277 44.5589C4.9356 44.454 4.45136 44.1952 4.07129 43.8151C3.69122 43.435 3.43239 42.9508 3.32753 42.4236C3.22267 41.8965 3.27648 41.35 3.48218 40.8534C3.68787 40.3568 4.0362 39.9324 4.48311 39.6338C4.93003 39.3352 5.45545 39.1758 5.99295 39.1758C6.7125 39.1758 7.40268 39.4611 7.91213 39.9693C8.42159 40.4774 8.70873 41.1668 8.7106 41.8864V41.8934ZM5.99295 28.2911C5.45545 28.2911 4.93003 28.1317 4.48311 27.8331C4.0362 27.5345 3.68787 27.11 3.48218 26.6134C3.27648 26.1168 3.22267 25.5704 3.32753 25.0432C3.43239 24.5161 3.69122 24.0318 4.07129 23.6518C4.45136 23.2717 4.9356 23.0129 5.46277 22.908C5.98994 22.8031 6.53637 22.857 7.03295 23.0627C7.52954 23.2683 7.95398 23.6167 8.2526 24.0636C8.55122 24.5105 8.7106 25.0359 8.7106 25.5734C8.7106 26.2942 8.42428 26.9854 7.91462 27.4951C7.40496 28.0048 6.71372 28.2911 5.99295 28.2911ZM16.8706 23.9358H11.7459C11.4665 22.9546 10.9412 22.061 10.2198 21.3396C9.49837 20.6182 8.60475 20.0929 7.62354 19.8134V11.7452C8.60475 11.4658 9.49837 10.9405 10.2198 10.2191C10.9412 9.49767 11.4665 8.60405 11.7459 7.62285H16.8706C19.0348 7.62285 21.1103 8.48256 22.6406 10.0129C24.1709 11.5432 25.0306 13.6187 25.0306 15.7828C25.0306 17.947 24.1709 20.0225 22.6406 21.5528C21.1103 23.0831 19.0348 23.9428 16.8706 23.9428V23.9358Z" fill="white"/>
<path d="M47.3012 10.9193C51.5859 10.9193 53.9365 13.4393 53.9365 18.7617C53.9365 24.084 51.5365 26.6393 47.3012 26.6393C46.5965 26.6785 45.8913 26.5735 45.2286 26.3308C44.5659 26.088 43.9597 25.7126 43.4471 25.2275V31.0158C43.4471 31.4838 43.2612 31.9327 42.9302 32.2636C42.5993 32.5946 42.1504 32.7805 41.6824 32.7805C41.2143 32.7805 40.7655 32.5946 40.4345 32.2636C40.1036 31.9327 39.9177 31.4838 39.9177 31.0158V12.8817C39.9177 12.4136 40.1036 11.9648 40.4345 11.6338C40.7655 11.3029 41.2143 11.117 41.6824 11.117C42.1504 11.117 42.5993 11.3029 42.9302 11.6338C43.2612 11.9648 43.4471 12.4136 43.4471 12.8817C43.8931 12.2778 44.4735 11.7862 45.1425 11.4456C45.8115 11.105 46.5505 10.9248 47.3012 10.9193ZM46.8424 13.9264C44.5553 13.9264 43.313 15.564 43.313 18.797C43.313 22.0299 44.52 23.6323 46.8424 23.6323C49.1647 23.6323 50.3718 21.9946 50.3718 18.797C50.3718 15.5993 49.1365 13.9264 46.8494 13.9264H46.8424Z" fill="white"/>
<path d="M60.0918 13.044C60.439 12.4094 60.949 11.8788 61.5693 11.5066C62.1896 11.1344 62.8979 10.9341 63.6212 10.9264C63.84 10.9264 64.0566 10.9695 64.2587 11.0532C64.4608 11.1369 64.6445 11.2596 64.7992 11.4143C64.9538 11.569 65.0766 11.7527 65.1603 11.9548C65.244 12.1569 65.2871 12.3735 65.2871 12.5923C65.2871 12.811 65.244 13.0277 65.1603 13.2298C65.0766 13.4319 64.9538 13.6155 64.7992 13.7702C64.6445 13.9249 64.4608 14.0476 64.2587 14.1313C64.0566 14.2151 63.84 14.2582 63.6212 14.2582C61.3624 14.2582 60.0918 15.6699 60.0918 17.8864V24.7123C60.0918 25.1803 59.9059 25.6292 59.5749 25.9601C59.244 26.2911 58.7951 26.477 58.3271 26.477C57.8591 26.477 57.4102 26.2911 57.0793 25.9601C56.7483 25.6292 56.5624 25.1803 56.5624 24.7123V12.8817C56.5624 12.4137 56.7483 11.9648 57.0793 11.6339C57.4102 11.3029 57.8591 11.117 58.3271 11.117C58.7951 11.117 59.244 11.3029 59.5749 11.6339C59.9059 11.9648 60.0918 12.4137 60.0918 12.8817V13.044Z" fill="white"/>
<path d="M73.4612 26.6393C69.0494 26.6393 66.3036 24.1193 66.3036 18.797C66.3036 13.4746 69.0494 10.9193 73.4612 10.9193C77.873 10.9193 80.6189 13.4181 80.6189 18.797C80.6189 24.1758 77.873 26.6393 73.4612 26.6393ZM73.4612 13.9334C71.1106 13.9334 69.8683 15.5711 69.8683 18.804C69.8683 22.037 71.1106 23.6393 73.4612 23.6393C75.8118 23.6393 77.0541 22.0017 77.0541 18.804C77.0541 15.6064 75.8118 13.9264 73.4612 13.9264V13.9334Z" fill="white"/>
<path d="M89.6118 10.9193C90.6121 10.8764 91.6094 11.0568 92.5313 11.4476C93.4531 11.8383 94.2764 12.4294 94.9412 13.1781C95.1302 13.4086 95.2502 13.6879 95.2873 13.9837C95.3244 14.2795 95.2771 14.5797 95.1509 14.8498C95.0247 15.1199 94.8248 15.3488 94.5741 15.5102C94.3234 15.6715 94.0322 15.7587 93.7341 15.7616C93.5044 15.7624 93.2774 15.7128 93.0688 15.6165C92.8603 15.5202 92.6754 15.3794 92.5271 15.204C92.1664 14.7899 91.7187 14.4607 91.2159 14.2398C90.7131 14.0189 90.1678 13.9119 89.6189 13.9263C87.3318 13.9263 86.0894 15.691 86.0894 18.7616C86.0894 21.8322 87.3318 23.6322 89.6189 23.6322C90.8148 23.5823 91.9567 23.1211 92.8518 22.3263C93.1314 22.1077 93.4782 21.9929 93.833 22.0016C94.1567 22.0004 94.4729 22.099 94.7386 22.2839C95.0042 22.4689 95.2064 22.7313 95.3175 23.0354C95.4287 23.3394 95.4434 23.6704 95.3596 23.9831C95.2758 24.2958 95.0977 24.575 94.8494 24.7828C93.3915 26.0211 91.5313 26.6838 89.6189 26.6463C85.1718 26.6463 82.56 24.0981 82.56 18.7687C82.56 13.4393 85.1647 10.9193 89.6118 10.9193Z" fill="white"/>
<path d="M104.358 10.9193C109.885 10.9193 110.894 15.1546 110.894 17.4275C110.894 18.6346 110.894 20.0464 108.896 20.0464H100.821C100.821 22.397 102.487 23.477 104.647 23.477C105.804 23.4808 106.933 23.1256 107.88 22.4605C108.18 22.2313 108.547 22.1051 108.925 22.1005C109.127 22.0996 109.328 22.1387 109.515 22.2157C109.702 22.2927 109.872 22.406 110.015 22.5491C110.158 22.6922 110.271 22.8622 110.348 23.0493C110.425 23.2364 110.464 23.437 110.463 23.6393C110.461 23.8684 110.409 24.0943 110.313 24.3023C110.217 24.5102 110.078 24.6956 109.906 24.8464C108.437 26.0824 106.558 26.7244 104.64 26.6464C100.094 26.6464 97.2847 24.197 97.2847 18.7334C97.2917 13.7287 99.9106 10.9193 104.358 10.9193ZM100.948 17.0958H107.421C107.421 15.4934 106.503 13.9264 104.379 13.9264C103.942 13.8934 103.503 13.9508 103.089 14.095C102.675 14.2392 102.296 14.467 101.974 14.7644C101.652 15.0617 101.395 15.4222 101.218 15.8233C101.042 16.2244 100.95 16.6576 100.948 17.0958Z" fill="white"/>
<path d="M116.675 15.2323C116.675 17.6534 124.715 16.5381 124.715 21.9311C124.715 25.0017 122.096 26.5758 118.736 26.5758C115.913 26.5758 113.795 25.2981 112.948 24.2887C112.696 24.0102 112.555 23.6482 112.553 23.2723C112.558 22.8583 112.725 22.4629 113.018 22.1702C113.311 21.8775 113.706 21.7107 114.12 21.7052C114.496 21.7078 114.858 21.8485 115.136 22.1005C116.129 22.9738 117.408 23.4513 118.729 23.4417C120.198 23.4417 121.151 23.0464 121.151 22.1358C121.151 19.4887 113.139 20.8581 113.139 15.3028C113.139 12.3593 115.588 10.9193 118.595 10.9193C120.918 10.9193 122.979 11.8017 123.889 12.9452C124.118 13.2195 124.234 13.57 124.214 13.9264C124.209 14.3403 124.042 14.7357 123.749 15.0284C123.456 15.3211 123.061 15.4879 122.647 15.4934C122.236 15.4734 121.844 15.3112 121.539 15.0346C120.704 14.3631 119.666 13.9947 118.595 13.9899C117.395 13.9899 116.675 14.4134 116.675 15.2323Z" fill="white"/>
<path d="M133.969 10.9193C139.497 10.9193 140.506 15.1546 140.506 17.4275C140.506 18.6346 140.506 20.0464 138.508 20.0464H130.44C130.44 22.397 132.106 23.477 134.266 23.477C135.423 23.4808 136.552 23.1257 137.499 22.4605C137.799 22.2313 138.166 22.1051 138.544 22.1005C138.746 22.0996 138.946 22.1387 139.134 22.2157C139.321 22.2927 139.491 22.406 139.634 22.5491C139.777 22.6922 139.89 22.8622 139.967 23.0493C140.044 23.2364 140.083 23.437 140.082 23.6393C140.079 23.8683 140.028 24.0941 139.932 24.302C139.836 24.5099 139.697 24.6954 139.525 24.8464C138.055 26.0818 136.177 26.7237 134.259 26.6464C129.713 26.6464 126.904 24.197 126.904 18.7334C126.911 13.7287 129.522 10.9193 133.969 10.9193ZM130.539 17.0958H137.012C137.012 15.4934 136.094 13.9264 133.969 13.9264C133.533 13.8934 133.093 13.9508 132.68 14.095C132.266 14.2392 131.886 14.467 131.564 14.7644C131.242 15.0617 130.985 15.4222 130.809 15.8233C130.632 16.2244 130.541 16.6576 130.539 17.0958Z" fill="white"/>
<path d="M144.106 8.63223C144.106 8.17263 144.288 7.73185 144.613 7.40686C144.938 7.08187 145.379 6.89929 145.839 6.89929C146.298 6.89929 146.739 7.08187 147.064 7.40686C147.389 7.73185 147.572 8.17263 147.572 8.63223V11.3781H149.04C149.43 11.3781 149.805 11.5332 150.081 11.8092C150.357 12.0852 150.512 12.4595 150.512 12.8499C150.512 13.2402 150.357 13.6146 150.081 13.8906C149.805 14.1666 149.43 14.3216 149.04 14.3216H147.536V22.2275C147.54 22.3867 147.575 22.5435 147.64 22.689C147.704 22.8345 147.797 22.9659 147.912 23.0754C148.028 23.185 148.164 23.2706 148.313 23.3274C148.461 23.3842 148.62 23.411 148.779 23.4064C149.168 23.4328 149.533 23.606 149.799 23.891C150.065 24.176 150.213 24.5516 150.213 24.9416C150.213 25.3317 150.065 25.7073 149.799 25.9923C149.533 26.2773 149.168 26.4505 148.779 26.4769C145.871 26.4769 144.071 24.6134 144.071 22.0299V14.3146H143.315C142.925 14.3146 142.551 14.1595 142.275 13.8835C141.999 13.6075 141.844 13.2332 141.844 12.8428C141.844 12.4525 141.999 12.0781 142.275 11.8021C142.551 11.5261 142.925 11.3711 143.315 11.3711H144.071L144.106 8.63223Z" fill="white"/>
</svg>
